# xmcd CD database file
#
# Track frame offsets:
#	150
#	23233
#	45635
#	69030
#	92747
#	111242
#	134305
#	155469
#	176780
#	200422
#	221937
#	246175
#	265360
#	283550
#	306930
#
# Disc length: 4424 seconds
#
# Revision: 5
# Processed by: cddbd v1.5.2PL0 Copyright (c) Steve Scherf et al.
# Submitted via: CDex 1.70beta3
#
DISCID=dd11460f
DTITLE=My Little Lover - Best Collection Complete Best Disc 2 AVCO-36038-9
DYEAR=2010
DGENRE=J-Pop
TTITLE0=Man and Woman
TTITLE1=白いカイト
TTITLE2=Hello, Again ～昔からある場所～
TTITLE3=Alice
TTITLE4=NOW AND THEN ～失われた時を求めて～
TTITLE5=YES ～Free Flower～
TTITLE6=ANIMAL LIFE
TTITLE7=Shuffle
TTITLE8=空の下で
TTITLE9=DESTINY
TTITLE10=CRAZY LOVE
TTITLE11=shooting star ～シューティングスター～
TTITLE12=日傘 ～japanese beauty～
TTITLE13=Survival
TTITLE14=深呼吸の必要
EXTD=YEAR: 2010
EXTT0=
EXTT1=
EXTT2=
EXTT3=
EXTT4=
EXTT5=
EXTT6=
EXTT7=
EXTT8=
EXTT9=
EXTT10=
EXTT11=
EXTT12=
EXTT13=
EXTT14=
PLAYORDER=
